<?xml version="1.0" encoding="utf-8"?>
<!-- Generator: Adobe Illustrator 22.0.1, SVG Export Plug-In . SVG Version: 6.00 Build 0)  -->
<svg version="1.1"
	 id="svg2" inkscape:version="0.48.3.1 r9886" sodipodi:docname="htmlcss.svg" xmlns:cc="http://creativecommons.org/ns#" xmlns:dc="http://purl.org/dc/elements/1.1/" xmlns:inkscape="http://www.inkscape.org/namespaces/inkscape" xmlns:rdf="http://www.w3.org/1999/02/22-rdf-syntax-ns#" xmlns:sodipodi="http://sodipodi.sourceforge.net/DTD/sodipodi-0.dtd" xmlns:svg="http://www.w3.org/2000/svg"
	 xmlns="http://www.w3.org/2000/svg" xmlns:xlink="http://www.w3.org/1999/xlink" x="0px" y="0px" viewBox="0 0 363 512"
	 style="enable-background:new 0 0 363 512;" xml:space="preserve">
<style type="text/css">
	.st0{fill:#484848;}
	.st1{fill:#FFFFFF;}
</style>
<sodipodi:namedview  bordercolor="#666666" borderopacity="1.0" fit-margin-bottom="0" fit-margin-left="0" fit-margin-right="0" fit-margin-top="0" id="base" inkscape:current-layer="layer1" inkscape:cx="-276.49014" inkscape:cy="244.10462" inkscape:document-units="px" inkscape:pageopacity="0.0" inkscape:pageshadow="2" inkscape:window-height="938" inkscape:window-maximized="1" inkscape:window-width="1280" inkscape:window-x="0" inkscape:window-y="31" inkscape:zoom="0.35" pagecolor="#ffffff" showgrid="false">
	</sodipodi:namedview>
<g id="layer1" transform="translate(-170.06157,-270.18109)" inkscape:groupmode="layer" inkscape:label="Calque 1">
	<polygon id="polygon2989" class="st0" points="351.2,782.2 203.1,741.1 170.1,370.8 532.8,370.8 499.7,741 	"/>
	<polygon id="polygon2991" class="st0" points="471.5,717.4 499.7,401.1 351.4,401.1 351.4,750.7 	"/>
	<polygon id="polygon2993" class="st1" points="245.7,538.4 249.8,583.8 351.4,583.8 351.4,538.4 	"/>
	<polygon id="polygon2995" class="st1" points="237.6,446.5 241.7,491.9 351.4,491.9 351.4,446.5 351.3,446.5 	"/>
	<polygon id="polygon2997" class="st1" points="351.4,656.3 351.2,656.4 300.7,642.7 297.4,606.5 272.8,606.5 251.8,606.5 
		258.2,677.8 351.2,703.6 351.4,703.6 	"/>
	<path id="path2999" inkscape:connector-curvature="0" class="st0" d="M255.4,270.2h55v23h-32v23h32v23h-55V270.2z"/>
	<path id="path3001" inkscape:connector-curvature="0" class="st0" d="M321.4,270.2h55v20h-32v4h32v46h-55v-21h32v-4h-32V270.2z"/>
	<path id="path3003" inkscape:connector-curvature="0" class="st0" d="M387.4,270.2h55v20h-32v4h32v46h-55v-21h32v-4h-32V270.2z"/>
	<polygon id="polygon3005" class="st1" points="456.8,538.4 465,446.5 351.3,446.5 351.3,491.9 415.3,491.9 411.1,538.4 
		351.3,538.4 351.3,583.8 407.2,583.8 401.9,642.7 351.3,656.4 351.3,703.6 444.4,677.8 445,670.1 455.7,550.6 	"/>
</g>
<rect x="391.2" y="260.7" class="st0" width="60.5" height="60.5"/>
</svg>
